<svg xmlns="http://www.w3.org/2000/svg" width="24" height="24" viewBox="0 0 24 24" fill="none">
  <path d="M20.3375 13.5738L21.9789 6.35157C22.0974 5.83011 21.7011 5.33355 21.1663 5.33355H7.52806L7.20979 3.77765C7.13049 3.38984 6.78924 3.11133 6.39337 3.11133H2.83333C2.37309 3.11133 2 3.48442 2 3.94466V4.50022C2 4.96046 2.37309 5.33355 2.83333 5.33355H5.25983L7.69899 17.2584C7.11545 17.594 6.72222 18.2232 6.72222 18.9447C6.72222 20.0186 7.59278 20.8891 8.66667 20.8891C9.74056 20.8891 10.6111 20.0186 10.6111 18.9447C10.6111 18.4004 10.3873 17.9087 10.0269 17.5558H17.3064C16.9461 17.9087 16.7222 18.4004 16.7222 18.9447C16.7222 20.0186 17.5928 20.8891 18.6667 20.8891C19.7406 20.8891 20.6111 20.0186 20.6111 18.9447C20.6111 18.1748 20.1636 17.5095 19.5146 17.1945L19.7062 16.3516C19.8247 15.8301 19.4283 15.3336 18.8936 15.3336H9.57351L9.34625 14.2224H19.5249C19.914 14.2224 20.2513 13.9532 20.3375 13.5738Z" fill="#4F46E5"/>
</svg>