<svg xmlns="http://www.w3.org/2000/svg" width="24" height="24" viewBox="0 0 24 24" fill="none">
  <path d="M6.28571 13.4289H3.42857C2.63973 13.4289 2 14.0686 2 14.8574V17.7146C2 18.5034 2.63973 19.1431 3.42857 19.1431H6.28571C7.07455 19.1431 7.71429 18.5034 7.71429 17.7146V14.8574C7.71429 14.0686 7.07455 13.4289 6.28571 13.4289ZM13.4286 13.4289H10.5714C9.78259 13.4289 9.14286 14.0686 9.14286 14.8574V17.7146C9.14286 18.5034 9.78259 19.1431 10.5714 19.1431H13.4286C14.2174 19.1431 14.8571 18.5034 14.8571 17.7146V14.8574C14.8571 14.0686 14.2174 13.4289 13.4286 13.4289ZM20.5714 13.4289H17.7143C16.9254 13.4289 16.2857 14.0686 16.2857 14.8574V17.7146C16.2857 18.5034 16.9254 19.1431 17.7143 19.1431H20.5714C21.3603 19.1431 22 18.5034 22 17.7146V14.8574C22 14.0686 21.3603 13.4289 20.5714 13.4289ZM6.28571 4.85742H3.42857C2.63973 4.85742 2 5.49715 2 6.28599V9.14314C2 9.93198 2.63973 10.5717 3.42857 10.5717H6.28571C7.07455 10.5717 7.71429 9.93198 7.71429 9.14314V6.28599C7.71429 5.49715 7.07455 4.85742 6.28571 4.85742ZM13.4286 4.85742H10.5714C9.78259 4.85742 9.14286 5.49715 9.14286 6.28599V9.14314C9.14286 9.93198 9.78259 10.5717 10.5714 10.5717H13.4286C14.2174 10.5717 14.8571 9.93198 14.8571 9.14314V6.28599C14.8571 5.49715 14.2174 4.85742 13.4286 4.85742ZM20.5714 4.85742H17.7143C16.9254 4.85742 16.2857 5.49715 16.2857 6.28599V9.14314C16.2857 9.93198 16.9254 10.5717 17.7143 10.5717H20.5714C21.3603 10.5717 22 9.93198 22 9.14314V6.28599C22 5.49715 21.3603 4.85742 20.5714 4.85742Z" fill="#4F46E5"/>
</svg>